<svg width="400" height="485" viewBox="0 0 400 485" fill="none" xmlns="http://www.w3.org/2000/svg">
<path d="M0 16C0 7.16344 7.16344 0 16 0H384C392.837 0 400 7.16344 400 16V469C400 477.837 392.837 485 384 485H16C7.16345 485 0 477.837 0 469V16Z" fill="white"/>
<circle cx="370" cy="461" r="15" fill="#D9D9D9"/>
<circle cx="321" cy="461" r="15" fill="#D9D9D9"/>
<circle cx="272" cy="461" r="15" fill="#D9D9D9"/>
<circle cx="223" cy="461" r="15" fill="#D9D9D9"/>
<circle cx="174" cy="461" r="15" fill="#D9D9D9"/>
<circle cx="125" cy="461" r="15" fill="#D9D9D9"/>
<circle cx="76" cy="461" r="15" fill="#D9D9D9"/>
<circle cx="27" cy="461" r="15" fill="#D9D9D9"/>
<circle cx="372" cy="415" r="15" fill="#D9D9D9"/>
<circle cx="323" cy="415" r="15" fill="#D9D9D9"/>
<circle cx="274" cy="415" r="15" fill="#D9D9D9"/>
<circle cx="225" cy="415" r="15" fill="#D9D9D9"/>
<circle cx="176" cy="415" r="15" fill="#D9D9D9"/>
<circle cx="127" cy="415" r="15" fill="#D9D9D9"/>
<circle cx="78" cy="415" r="15" fill="#D9D9D9"/>
<circle cx="29" cy="415" r="15" fill="#D9D9D9"/>
<path d="M353.477 379.466V373.841H354.432V379.466H353.477ZM351.142 377.131V376.176H356.767V377.131H351.142ZM362.7 381H361.592L364.797 372.273H365.887L369.092 381H367.984L365.376 373.653H365.308L362.7 381ZM363.109 377.591H367.575V378.528H363.109V377.591ZM372.787 381.136C372.241 381.136 371.76 380.999 371.342 380.723C370.924 380.445 370.598 380.053 370.362 379.547C370.126 379.038 370.008 378.438 370.008 377.744C370.008 377.057 370.126 376.46 370.362 375.955C370.598 375.449 370.926 375.058 371.346 374.783C371.767 374.507 372.252 374.369 372.804 374.369C373.23 374.369 373.566 374.44 373.814 374.582C374.064 374.722 374.254 374.881 374.385 375.06C374.518 375.236 374.622 375.381 374.696 375.494H374.781V372.273H375.787V381H374.815V379.994H374.696C374.622 380.114 374.517 380.264 374.38 380.446C374.244 380.625 374.049 380.786 373.797 380.928C373.544 381.067 373.207 381.136 372.787 381.136ZM372.923 380.233C373.326 380.233 373.667 380.128 373.946 379.918C374.224 379.705 374.436 379.411 374.581 379.036C374.725 378.658 374.798 378.222 374.798 377.727C374.798 377.239 374.727 376.811 374.585 376.445C374.443 376.075 374.233 375.788 373.954 375.584C373.676 375.376 373.332 375.273 372.923 375.273C372.497 375.273 372.142 375.382 371.858 375.601C371.576 375.817 371.365 376.111 371.223 376.483C371.083 376.852 371.014 377.267 371.014 377.727C371.014 378.193 371.085 378.616 371.227 378.997C371.372 379.375 371.585 379.676 371.866 379.901C372.15 380.122 372.502 380.233 372.923 380.233ZM380.24 381.136C379.694 381.136 379.213 380.999 378.795 380.723C378.377 380.445 378.051 380.053 377.815 379.547C377.579 379.038 377.461 378.438 377.461 377.744C377.461 377.057 377.579 376.46 377.815 375.955C378.051 375.449 378.379 375.058 378.799 374.783C379.22 374.507 379.706 374.369 380.257 374.369C380.683 374.369 381.02 374.44 381.267 374.582C381.517 374.722 381.707 374.881 381.838 375.06C381.971 375.236 382.075 375.381 382.149 375.494H382.234V372.273H383.24V381H382.268V379.994H382.149C382.075 380.114 381.97 380.264 381.833 380.446C381.697 380.625 381.502 380.786 381.25 380.928C380.997 381.067 380.66 381.136 380.24 381.136ZM380.376 380.233C380.779 380.233 381.12 380.128 381.399 379.918C381.677 379.705 381.889 379.411 382.034 379.036C382.179 378.658 382.251 378.222 382.251 377.727C382.251 377.239 382.18 376.811 382.038 376.445C381.896 376.075 381.686 375.788 381.407 375.584C381.129 375.376 380.785 375.273 380.376 375.273C379.95 375.273 379.595 375.382 379.311 375.601C379.029 375.817 378.818 376.111 378.676 376.483C378.537 376.852 378.467 377.267 378.467 377.727C378.467 378.193 378.538 378.616 378.68 378.997C378.825 379.375 379.038 379.676 379.319 379.901C379.603 380.122 379.956 380.233 380.376 380.233Z" fill="black"/>
<path d="M19.8295 374.455C19.7784 374.023 19.571 373.688 19.2074 373.449C18.8438 373.21 18.3977 373.091 17.8693 373.091C17.483 373.091 17.1449 373.153 16.8551 373.278C16.5682 373.403 16.3438 373.575 16.1818 373.794C16.0227 374.013 15.9432 374.261 15.9432 374.54C15.9432 374.773 15.9986 374.973 16.1094 375.141C16.223 375.305 16.3679 375.443 16.544 375.554C16.7202 375.662 16.9048 375.751 17.098 375.822C17.2912 375.891 17.4688 375.946 17.6307 375.989L18.517 376.227C18.7443 376.287 18.9972 376.369 19.2756 376.474C19.5568 376.58 19.8253 376.723 20.081 376.905C20.3395 377.084 20.5526 377.314 20.7202 377.595C20.8878 377.876 20.9716 378.222 20.9716 378.631C20.9716 379.102 20.848 379.528 20.6009 379.909C20.3565 380.29 19.9986 380.592 19.527 380.817C19.0582 381.041 18.4886 381.153 17.8182 381.153C17.1932 381.153 16.652 381.053 16.1946 380.851C15.7401 380.649 15.3821 380.368 15.1207 380.007C14.8622 379.646 14.7159 379.227 14.6818 378.75H15.7727C15.8011 379.08 15.9119 379.352 16.1051 379.568C16.3011 379.781 16.5483 379.94 16.8466 380.045C17.1477 380.148 17.4716 380.199 17.8182 380.199C18.2216 380.199 18.5838 380.134 18.9048 380.003C19.2259 379.869 19.4801 379.685 19.6676 379.449C19.8551 379.21 19.9489 378.932 19.9489 378.614C19.9489 378.324 19.8679 378.088 19.706 377.906C19.544 377.724 19.331 377.577 19.0668 377.463C18.8026 377.349 18.517 377.25 18.2102 377.165L17.1364 376.858C16.4545 376.662 15.9148 376.382 15.517 376.018C15.1193 375.655 14.9205 375.179 14.9205 374.591C14.9205 374.102 15.0526 373.676 15.3168 373.312C15.5838 372.946 15.9418 372.662 16.3906 372.46C16.8423 372.256 17.3466 372.153 17.9034 372.153C18.4659 372.153 18.9659 372.254 19.4034 372.456C19.8409 372.655 20.1875 372.928 20.4432 373.274C20.7017 373.621 20.8381 374.014 20.8523 374.455H19.8295ZM24.4989 381.153C24.0842 381.153 23.7077 381.075 23.3697 380.919C23.0316 380.76 22.7631 380.531 22.5643 380.233C22.3654 379.932 22.266 379.568 22.266 379.142C22.266 378.767 22.3398 378.463 22.4876 378.23C22.6353 377.994 22.8327 377.81 23.0799 377.676C23.3271 377.543 23.5998 377.443 23.8981 377.378C24.1992 377.31 24.5018 377.256 24.8058 377.216C25.2035 377.165 25.5259 377.126 25.7731 377.101C26.0231 377.072 26.2049 377.026 26.3185 376.96C26.435 376.895 26.4933 376.781 26.4933 376.619V376.585C26.4933 376.165 26.3782 375.838 26.1481 375.605C25.9208 375.372 25.5756 375.256 25.1126 375.256C24.6325 375.256 24.256 375.361 23.9833 375.571C23.7106 375.781 23.5188 376.006 23.408 376.244L22.4535 375.903C22.6239 375.506 22.8512 375.196 23.1353 374.974C23.4222 374.75 23.7347 374.594 24.0728 374.506C24.4137 374.415 24.7489 374.369 25.0785 374.369C25.2887 374.369 25.5302 374.395 25.8029 374.446C26.0785 374.494 26.3441 374.595 26.5998 374.749C26.8583 374.902 27.0728 375.134 27.2433 375.443C27.4137 375.753 27.4989 376.168 27.4989 376.688V381H26.4933V380.114H26.4421C26.3739 380.256 26.2603 380.408 26.1012 380.57C25.9421 380.732 25.7305 380.869 25.4663 380.983C25.2021 381.097 24.8796 381.153 24.4989 381.153ZM24.6523 380.25C25.0501 380.25 25.3853 380.172 25.658 380.016C25.9336 379.859 26.141 379.658 26.2802 379.411C26.4222 379.163 26.4933 378.903 26.4933 378.631V377.71C26.4506 377.761 26.3569 377.808 26.212 377.851C26.07 377.891 25.9052 377.926 25.7177 377.957C25.533 377.986 25.3526 378.011 25.1765 378.034C25.0032 378.054 24.8626 378.071 24.7546 378.085C24.4933 378.119 24.2489 378.175 24.0217 378.251C23.7972 378.325 23.6154 378.437 23.4762 378.588C23.3398 378.736 23.2717 378.937 23.2717 379.193C23.2717 379.543 23.4009 379.807 23.6594 379.986C23.9208 380.162 24.2518 380.25 24.6523 380.25ZM34.4524 374.455L32.032 381H31.0092L28.5888 374.455H29.6797L31.4865 379.67H31.5547L33.3615 374.455H34.4524ZM38.2898 381.136C37.6591 381.136 37.1151 380.997 36.6577 380.719C36.2031 380.438 35.8523 380.045 35.6051 379.543C35.3608 379.037 35.2386 378.449 35.2386 377.778C35.2386 377.108 35.3608 376.517 35.6051 376.006C35.8523 375.491 36.196 375.091 36.6364 374.804C37.0795 374.514 37.5966 374.369 38.1875 374.369C38.5284 374.369 38.8651 374.426 39.1974 374.54C39.5298 374.653 39.8324 374.838 40.1051 375.094C40.3778 375.347 40.5952 375.682 40.7571 376.099C40.919 376.517 41 377.031 41 377.642V378.068H35.9545V377.199H39.9773C39.9773 376.83 39.9034 376.5 39.7557 376.21C39.6108 375.92 39.4034 375.692 39.1335 375.524C38.8665 375.357 38.5511 375.273 38.1875 375.273C37.7869 375.273 37.4403 375.372 37.1477 375.571C36.858 375.767 36.6349 376.023 36.4787 376.338C36.3224 376.653 36.2443 376.991 36.2443 377.352V377.932C36.2443 378.426 36.3295 378.845 36.5 379.189C36.6733 379.53 36.9134 379.79 37.2202 379.969C37.527 380.145 37.8835 380.233 38.2898 380.233C38.554 380.233 38.7926 380.196 39.0057 380.122C39.2216 380.045 39.4077 379.932 39.5639 379.781C39.7202 379.628 39.8409 379.437 39.9261 379.21L40.8977 379.483C40.7955 379.812 40.6236 380.102 40.3821 380.352C40.1406 380.599 39.8423 380.793 39.4872 380.932C39.1321 381.068 38.733 381.136 38.2898 381.136ZM45.0014 381.136C44.456 381.136 43.9744 380.999 43.5568 380.723C43.1392 380.445 42.8125 380.053 42.5767 379.547C42.3409 379.038 42.223 378.438 42.223 377.744C42.223 377.057 42.3409 376.46 42.5767 375.955C42.8125 375.449 43.1406 375.058 43.5611 374.783C43.9815 374.507 44.4673 374.369 45.0185 374.369C45.4446 374.369 45.7813 374.44 46.0284 374.582C46.2784 374.722 46.4688 374.881 46.5994 375.06C46.733 375.236 46.8366 375.381 46.9105 375.494H46.9957V372.273H48.0014V381H47.0298V379.994H46.9105C46.8366 380.114 46.7315 380.264 46.5952 380.446C46.4588 380.625 46.2642 380.786 46.0114 380.928C45.7585 381.067 45.4219 381.136 45.0014 381.136ZM45.1378 380.233C45.5412 380.233 45.8821 380.128 46.1605 379.918C46.4389 379.705 46.6506 379.411 46.7955 379.036C46.9403 378.658 47.0128 378.222 47.0128 377.727C47.0128 377.239 46.9418 376.811 46.7997 376.445C46.6577 376.075 46.4474 375.788 46.169 375.584C45.8906 375.376 45.5469 375.273 45.1378 375.273C44.7116 375.273 44.3565 375.382 44.0724 375.601C43.7912 375.817 43.5795 376.111 43.4375 376.483C43.2983 376.852 43.2287 377.267 43.2287 377.727C43.2287 378.193 43.2997 378.616 43.4418 378.997C43.5866 379.375 43.7997 379.676 44.081 379.901C44.3651 380.122 44.7173 380.233 45.1378 380.233ZM60.517 375H59.4602C59.3977 374.696 59.2884 374.429 59.1321 374.199C58.9787 373.969 58.7912 373.776 58.5696 373.619C58.3509 373.46 58.108 373.341 57.8409 373.261C57.5739 373.182 57.2955 373.142 57.0057 373.142C56.4773 373.142 55.9986 373.276 55.5696 373.543C55.1435 373.81 54.804 374.203 54.5511 374.723C54.3011 375.243 54.1761 375.881 54.1761 376.636C54.1761 377.392 54.3011 378.03 54.5511 378.55C54.804 379.07 55.1435 379.463 55.5696 379.73C55.9986 379.997 56.4773 380.131 57.0057 380.131C57.2955 380.131 57.5739 380.091 57.8409 380.011C58.108 379.932 58.3509 379.814 58.5696 379.658C58.7912 379.499 58.9787 379.304 59.1321 379.074C59.2884 378.841 59.3977 378.574 59.4602 378.273H60.517C60.4375 378.719 60.2926 379.118 60.0824 379.47C59.8722 379.822 59.6108 380.122 59.2983 380.369C58.9858 380.614 58.6349 380.8 58.2457 380.928C57.8594 381.055 57.446 381.119 57.0057 381.119C56.2614 381.119 55.5994 380.938 55.0199 380.574C54.4403 380.21 53.9844 379.693 53.652 379.023C53.3196 378.352 53.1534 377.557 53.1534 376.636C53.1534 375.716 53.3196 374.92 53.652 374.25C53.9844 373.58 54.4403 373.062 55.0199 372.699C55.5994 372.335 56.2614 372.153 57.0057 372.153C57.446 372.153 57.8594 372.217 58.2457 372.345C58.6349 372.473 58.9858 372.661 59.2983 372.908C59.6108 373.152 59.8722 373.45 60.0824 373.803C60.2926 374.152 60.4375 374.551 60.517 375ZM64.7475 381.136C64.1566 381.136 63.6381 380.996 63.1921 380.714C62.7489 380.433 62.4023 380.04 62.1523 379.534C61.9052 379.028 61.7816 378.437 61.7816 377.761C61.7816 377.08 61.9052 376.484 62.1523 375.976C62.4023 375.467 62.7489 375.072 63.1921 374.791C63.6381 374.51 64.1566 374.369 64.7475 374.369C65.3384 374.369 65.8555 374.51 66.2987 374.791C66.7447 375.072 67.0913 375.467 67.3384 375.976C67.5884 376.484 67.7134 377.08 67.7134 377.761C67.7134 378.437 67.5884 379.028 67.3384 379.534C67.0913 380.04 66.7447 380.433 66.2987 380.714C65.8555 380.996 65.3384 381.136 64.7475 381.136ZM64.7475 380.233C65.1964 380.233 65.5657 380.118 65.8555 379.888C66.1452 379.658 66.3597 379.355 66.4989 378.98C66.6381 378.605 66.7077 378.199 66.7077 377.761C66.7077 377.324 66.6381 376.916 66.4989 376.538C66.3597 376.161 66.1452 375.855 65.8555 375.622C65.5657 375.389 65.1964 375.273 64.7475 375.273C64.2987 375.273 63.9293 375.389 63.6396 375.622C63.3498 375.855 63.1353 376.161 62.9961 376.538C62.8569 376.916 62.7873 377.324 62.7873 377.761C62.7873 378.199 62.8569 378.605 62.9961 378.98C63.1353 379.355 63.3498 379.658 63.6396 379.888C63.9293 380.118 64.2987 380.233 64.7475 380.233ZM70.2543 372.273V381H69.2486V372.273H70.2543ZM74.7553 381.136C74.1644 381.136 73.646 380.996 73.1999 380.714C72.7567 380.433 72.4102 380.04 72.1602 379.534C71.913 379.028 71.7894 378.437 71.7894 377.761C71.7894 377.08 71.913 376.484 72.1602 375.976C72.4102 375.467 72.7567 375.072 73.1999 374.791C73.646 374.51 74.1644 374.369 74.7553 374.369C75.3462 374.369 75.8633 374.51 76.3065 374.791C76.7525 375.072 77.0991 375.467 77.3462 375.976C77.5962 376.484 77.7212 377.08 77.7212 377.761C77.7212 378.437 77.5962 379.028 77.3462 379.534C77.0991 380.04 76.7525 380.433 76.3065 380.714C75.8633 380.996 75.3462 381.136 74.7553 381.136ZM74.7553 380.233C75.2042 380.233 75.5735 380.118 75.8633 379.888C76.1531 379.658 76.3675 379.355 76.5067 378.98C76.646 378.605 76.7156 378.199 76.7156 377.761C76.7156 377.324 76.646 376.916 76.5067 376.538C76.3675 376.161 76.1531 375.855 75.8633 375.622C75.5735 375.389 75.2042 375.273 74.7553 375.273C74.3065 375.273 73.9371 375.389 73.6474 375.622C73.3576 375.855 73.1431 376.161 73.0039 376.538C72.8647 376.916 72.7951 377.324 72.7951 377.761C72.7951 378.199 72.8647 378.605 73.0039 378.98C73.1431 379.355 73.3576 379.658 73.6474 379.888C73.9371 380.118 74.3065 380.233 74.7553 380.233ZM79.2564 381V374.455H80.228V375.443H80.2962C80.4155 375.119 80.6314 374.857 80.9439 374.655C81.2564 374.453 81.6087 374.352 82.0007 374.352C82.0746 374.352 82.1669 374.354 82.2777 374.357C82.3885 374.359 82.4723 374.364 82.5291 374.369V375.392C82.495 375.384 82.4169 375.371 82.2947 375.354C82.1754 375.334 82.049 375.324 81.9155 375.324C81.5973 375.324 81.3132 375.391 81.0632 375.524C80.8161 375.655 80.62 375.837 80.4751 376.07C80.3331 376.3 80.2621 376.562 80.2621 376.858V381H79.2564ZM88.3576 375.92L87.4542 376.176C87.3974 376.026 87.3136 375.879 87.2028 375.737C87.0948 375.592 86.9471 375.473 86.7596 375.379C86.5721 375.286 86.332 375.239 86.0394 375.239C85.6388 375.239 85.305 375.331 85.038 375.516C84.7738 375.697 84.6417 375.929 84.6417 376.21C84.6417 376.46 84.7326 376.658 84.9144 376.803C85.0962 376.947 85.3803 377.068 85.7667 377.165L86.7383 377.403C87.3235 377.545 87.7596 377.763 88.0465 378.055C88.3335 378.345 88.4769 378.719 88.4769 379.176C88.4769 379.551 88.369 379.886 88.1531 380.182C87.94 380.477 87.6417 380.71 87.2582 380.881C86.8746 381.051 86.4286 381.136 85.9201 381.136C85.2525 381.136 84.6999 380.991 84.2624 380.702C83.8249 380.412 83.5479 379.989 83.4315 379.432L84.386 379.193C84.4769 379.545 84.6488 379.81 84.9016 379.986C85.1573 380.162 85.4911 380.25 85.9031 380.25C86.3718 380.25 86.744 380.151 87.0195 379.952C87.2979 379.75 87.4371 379.509 87.4371 379.227C87.4371 379 87.3576 378.81 87.1985 378.656C87.0394 378.5 86.7951 378.384 86.4656 378.307L85.3746 378.051C84.7752 377.909 84.3349 377.689 84.0536 377.391C83.7752 377.089 83.636 376.713 83.636 376.261C83.636 375.892 83.7397 375.565 83.9471 375.281C84.1573 374.997 84.4428 374.774 84.8036 374.612C85.1673 374.45 85.5792 374.369 86.0394 374.369C86.6871 374.369 87.1957 374.511 87.565 374.795C87.9371 375.08 88.2013 375.455 88.3576 375.92ZM90.7237 381.068C90.5135 381.068 90.3331 380.993 90.1825 380.842C90.032 380.692 89.9567 380.511 89.9567 380.301C89.9567 380.091 90.032 379.911 90.1825 379.76C90.3331 379.609 90.5135 379.534 90.7237 379.534C90.9339 379.534 91.1143 379.609 91.2649 379.76C91.4155 379.911 91.4908 380.091 91.4908 380.301C91.4908 380.44 91.4553 380.568 91.3842 380.685C91.3161 380.801 91.2237 380.895 91.1072 380.966C90.9936 381.034 90.8658 381.068 90.7237 381.068ZM90.7237 376.21C90.5135 376.21 90.3331 376.135 90.1825 375.984C90.032 375.834 89.9567 375.653 89.9567 375.443C89.9567 375.233 90.032 375.053 90.1825 374.902C90.3331 374.751 90.5135 374.676 90.7237 374.676C90.9339 374.676 91.1143 374.751 91.2649 374.902C91.4155 375.053 91.4908 375.233 91.4908 375.443C91.4908 375.582 91.4553 375.71 91.3842 375.827C91.3161 375.943 91.2237 376.037 91.1072 376.108C90.9936 376.176 90.8658 376.21 90.7237 376.21Z" fill="black"/>
<rect x="296" y="315" width="89" height="31" rx="10" fill="#D9D9D9"/>
<rect x="135" y="315" width="129" height="31" rx="10" fill="#D9D9D9"/>
<rect x="14" y="315" width="89" height="31" rx="10" fill="#D9D9D9"/>
<rect x="14" y="279" width="370" height="13" rx="6.5" fill="#D9D9D9"/>
<rect x="14" y="257" width="370" height="13" rx="6.5" fill="#D9D9D9"/>
<path d="M15 19C15 13.4772 19.4772 9 25 9H375C380.523 9 385 13.4772 385 19V218C385 223.523 380.523 228 375 228H25C19.4771 228 15 223.523 15 218V19Z" fill="#D9D9D9"/>
</svg>
