<svg width="1920" height="1080" viewBox="0 0 1920 1080" fill="none" xmlns="http://www.w3.org/2000/svg">
<rect width="1920" height="1080" fill="#F5F5F5"/>
<rect width="1920" height="1080" fill="white"/>
<rect x="1885" y="170" width="22" height="751" rx="10" fill="#D9D9D9"/>
<rect x="1499" y="601" width="320" height="320" rx="10" fill="#D9D9D9"/>
<rect x="1127" y="601" width="320" height="320" rx="10" fill="#D9D9D9"/>
<rect x="755" y="597" width="320" height="320" rx="10" fill="#D9D9D9"/>
<rect x="383" y="597" width="320" height="320" rx="10" fill="#D9D9D9"/>
<path d="M11 607C11 601.477 15.4772 597 21 597H321C326.523 597 331 601.477 331 607V907C331 912.523 326.523 917 321 917H21C15.4772 917 11 912.523 11 907V607Z" fill="#D9D9D9"/>
<path d="M14.1705 548.818H17.9545L26.8523 570.551H27.1591L36.0568 548.818H39.8409V575H36.875V555.108H36.6193L28.4375 575H25.5739L17.392 555.108H17.1364V575H14.1705V548.818ZM53.766 575.409C51.9933 575.409 50.4379 574.987 49.0998 574.143C47.7702 573.3 46.7305 572.119 45.9805 570.602C45.239 569.085 44.8683 567.312 44.8683 565.284C44.8683 563.239 45.239 561.453 45.9805 559.928C46.7305 558.402 47.7702 557.217 49.0998 556.374C50.4379 555.53 51.9933 555.108 53.766 555.108C55.5387 555.108 57.0898 555.53 58.4194 556.374C59.7575 557.217 60.7972 558.402 61.5387 559.928C62.2887 561.453 62.6637 563.239 62.6637 565.284C62.6637 567.312 62.2887 569.085 61.5387 570.602C60.7972 572.119 59.7575 573.3 58.4194 574.143C57.0898 574.987 55.5387 575.409 53.766 575.409ZM53.766 572.699C55.1126 572.699 56.2205 572.354 57.0898 571.663C57.9592 570.973 58.6026 570.065 59.0202 568.94C59.4379 567.815 59.6467 566.597 59.6467 565.284C59.6467 563.972 59.4379 562.749 59.0202 561.615C58.6026 560.482 57.9592 559.565 57.0898 558.866C56.2205 558.168 55.1126 557.818 53.766 557.818C52.4194 557.818 51.3114 558.168 50.4421 558.866C49.5728 559.565 48.9293 560.482 48.5117 561.615C48.0941 562.749 47.8853 563.972 47.8853 565.284C47.8853 566.597 48.0941 567.815 48.5117 568.94C48.9293 570.065 49.5728 570.973 50.4421 571.663C51.3114 572.354 52.4194 572.699 53.766 572.699ZM70.2862 563.188V575H67.2692V555.364H70.1839V558.432H70.4396C70.8999 557.435 71.5987 556.634 72.5362 556.028C73.4737 555.415 74.6839 555.108 76.1669 555.108C77.4964 555.108 78.6598 555.381 79.657 555.926C80.6541 556.463 81.4297 557.281 81.9837 558.381C82.5376 559.472 82.8146 560.852 82.8146 562.523V575H79.7976V562.727C79.7976 561.185 79.397 559.983 78.5959 559.122C77.7947 558.253 76.6953 557.818 75.2976 557.818C74.3345 557.818 73.4737 558.027 72.7152 558.445C71.9652 558.862 71.3729 559.472 70.9382 560.273C70.5036 561.074 70.2862 562.045 70.2862 563.188ZM96.8675 555.364V557.92H86.6914V555.364H96.8675ZM89.6573 550.659H92.6744V569.375C92.6744 570.227 92.7979 570.866 93.0451 571.293C93.3008 571.71 93.6246 571.991 94.0167 572.136C94.4173 572.273 94.8391 572.341 95.2823 572.341C95.6147 572.341 95.8874 572.324 96.1005 572.29C96.3136 572.247 96.484 572.213 96.6119 572.188L97.2255 574.898C97.021 574.974 96.7354 575.051 96.369 575.128C96.0025 575.213 95.538 575.256 94.9755 575.256C94.1232 575.256 93.288 575.072 92.4698 574.706C91.6602 574.339 90.9869 573.781 90.4499 573.031C89.9215 572.281 89.6573 571.335 89.6573 570.193V550.659ZM104.845 563.188V575H101.828V548.818H104.845V558.432H105.1C105.561 557.418 106.251 556.612 107.172 556.016C108.1 555.411 109.336 555.108 110.879 555.108C112.217 555.108 113.389 555.376 114.395 555.913C115.4 556.442 116.18 557.256 116.734 558.355C117.297 559.446 117.578 560.835 117.578 562.523V575H114.561V562.727C114.561 561.168 114.156 559.962 113.346 559.109C112.545 558.249 111.433 557.818 110.01 557.818C109.021 557.818 108.135 558.027 107.35 558.445C106.575 558.862 105.961 559.472 105.51 560.273C105.066 561.074 104.845 562.045 104.845 563.188Z" fill="black"/>
<rect x="1499" y="170" width="320" height="320" rx="10" fill="#D9D9D9"/>
<rect x="1127" y="170" width="320" height="320" rx="10" fill="#D9D9D9"/>
<rect x="755" y="170" width="320" height="320" rx="10" fill="#D9D9D9"/>
<rect x="383" y="170" width="320" height="320" rx="10" fill="#D9D9D9"/>
<rect x="11" y="170" width="320" height="320" rx="10" fill="#D9D9D9"/>
<path d="M14.1705 121.818H17.9545L26.8523 143.551H27.1591L36.0568 121.818H39.8409V148H36.875V128.108H36.6193L28.4375 148H25.5739L17.392 128.108H17.1364V148H14.1705V121.818ZM53.766 148.409C51.9933 148.409 50.4379 147.987 49.0998 147.143C47.7702 146.3 46.7305 145.119 45.9805 143.602C45.239 142.085 44.8683 140.312 44.8683 138.284C44.8683 136.239 45.239 134.453 45.9805 132.928C46.7305 131.402 47.7702 130.217 49.0998 129.374C50.4379 128.53 51.9933 128.108 53.766 128.108C55.5387 128.108 57.0898 128.53 58.4194 129.374C59.7575 130.217 60.7972 131.402 61.5387 132.928C62.2887 134.453 62.6637 136.239 62.6637 138.284C62.6637 140.312 62.2887 142.085 61.5387 143.602C60.7972 145.119 59.7575 146.3 58.4194 147.143C57.0898 147.987 55.5387 148.409 53.766 148.409ZM53.766 145.699C55.1126 145.699 56.2205 145.354 57.0898 144.663C57.9592 143.973 58.6026 143.065 59.0202 141.94C59.4379 140.815 59.6467 139.597 59.6467 138.284C59.6467 136.972 59.4379 135.749 59.0202 134.615C58.6026 133.482 57.9592 132.565 57.0898 131.866C56.2205 131.168 55.1126 130.818 53.766 130.818C52.4194 130.818 51.3114 131.168 50.4421 131.866C49.5728 132.565 48.9293 133.482 48.5117 134.615C48.0941 135.749 47.8853 136.972 47.8853 138.284C47.8853 139.597 48.0941 140.815 48.5117 141.94C48.9293 143.065 49.5728 143.973 50.4421 144.663C51.3114 145.354 52.4194 145.699 53.766 145.699ZM70.2862 136.188V148H67.2692V128.364H70.1839V131.432H70.4396C70.8999 130.435 71.5987 129.634 72.5362 129.028C73.4737 128.415 74.6839 128.108 76.1669 128.108C77.4964 128.108 78.6598 128.381 79.657 128.926C80.6541 129.463 81.4297 130.281 81.9837 131.381C82.5376 132.472 82.8146 133.852 82.8146 135.523V148H79.7976V135.727C79.7976 134.185 79.397 132.983 78.5959 132.122C77.7947 131.253 76.6953 130.818 75.2976 130.818C74.3345 130.818 73.4737 131.027 72.7152 131.445C71.9652 131.862 71.3729 132.472 70.9382 133.273C70.5036 134.074 70.2862 135.045 70.2862 136.188ZM96.8675 128.364V130.92H86.6914V128.364H96.8675ZM89.6573 123.659H92.6744V142.375C92.6744 143.227 92.7979 143.866 93.0451 144.293C93.3008 144.71 93.6246 144.991 94.0167 145.136C94.4173 145.273 94.8391 145.341 95.2823 145.341C95.6147 145.341 95.8874 145.324 96.1005 145.29C96.3136 145.247 96.484 145.213 96.6119 145.188L97.2255 147.898C97.021 147.974 96.7354 148.051 96.369 148.128C96.0025 148.213 95.538 148.256 94.9755 148.256C94.1232 148.256 93.288 148.072 92.4698 147.706C91.6602 147.339 90.9869 146.781 90.4499 146.031C89.9215 145.281 89.6573 144.335 89.6573 143.193V123.659ZM104.845 136.188V148H101.828V121.818H104.845V131.432H105.1C105.561 130.418 106.251 129.612 107.172 129.016C108.1 128.411 109.336 128.108 110.879 128.108C112.217 128.108 113.389 128.376 114.395 128.913C115.4 129.442 116.18 130.256 116.734 131.355C117.297 132.446 117.578 133.835 117.578 135.523V148H114.561V135.727C114.561 134.168 114.156 132.962 113.346 132.109C112.545 131.249 111.433 130.818 110.01 130.818C109.021 130.818 108.135 131.027 107.35 131.445C106.575 131.862 105.961 132.472 105.51 133.273C105.066 134.074 104.845 135.045 104.845 136.188Z" fill="black"/>
<path d="M846.023 20.9091H850.057L858.125 34.4886H858.466L866.534 20.9091H870.568L860.057 38.0114V50H856.534V38.0114L846.023 20.9091ZM880.447 50.4545C878.478 50.4545 876.75 49.9858 875.263 49.0483C873.786 48.1108 872.63 46.7992 871.797 45.1136C870.973 43.428 870.561 41.4583 870.561 39.2045C870.561 36.9318 870.973 34.9479 871.797 33.2528C872.63 31.5578 873.786 30.2415 875.263 29.304C876.75 28.3665 878.478 27.8977 880.447 27.8977C882.417 27.8977 884.141 28.3665 885.618 29.304C887.105 30.2415 888.26 31.5578 889.084 33.2528C889.917 34.9479 890.334 36.9318 890.334 39.2045C890.334 41.4583 889.917 43.428 889.084 45.1136C888.26 46.7992 887.105 48.1108 885.618 49.0483C884.141 49.9858 882.417 50.4545 880.447 50.4545ZM880.447 47.4432C881.944 47.4432 883.175 47.0597 884.141 46.2926C885.107 45.5256 885.821 44.517 886.286 43.267C886.75 42.017 886.982 40.6629 886.982 39.2045C886.982 37.7462 886.75 36.3873 886.286 35.1278C885.821 33.8684 885.107 32.8504 884.141 32.0739C883.175 31.2973 881.944 30.9091 880.447 30.9091C878.951 30.9091 877.72 31.2973 876.754 32.0739C875.788 32.8504 875.073 33.8684 874.609 35.1278C874.145 36.3873 873.913 37.7462 873.913 39.2045C873.913 40.6629 874.145 42.017 874.609 43.267C875.073 44.517 875.788 45.5256 876.754 46.2926C877.72 47.0597 878.951 47.4432 880.447 47.4432ZM909.201 41.0795V28.1818H912.553V50H909.201V46.3068H908.974C908.462 47.4148 907.667 48.357 906.587 49.1335C905.508 49.9006 904.144 50.2841 902.496 50.2841C901.133 50.2841 899.921 49.9858 898.86 49.3892C897.799 48.7831 896.966 47.8741 896.36 46.6619C895.754 45.4403 895.451 43.9015 895.451 42.0455V28.1818H898.803V41.8182C898.803 43.4091 899.248 44.678 900.138 45.625C901.038 46.572 902.184 47.0455 903.576 47.0455C904.409 47.0455 905.257 46.8324 906.119 46.4062C906.99 45.9801 907.719 45.3267 908.306 44.446C908.903 43.5653 909.201 42.4432 909.201 41.0795ZM918.693 50V28.1818H921.932V31.4773H922.159C922.557 30.3977 923.277 29.5218 924.318 28.8494C925.36 28.1771 926.534 27.8409 927.841 27.8409C928.087 27.8409 928.395 27.8456 928.764 27.8551C929.134 27.8646 929.413 27.8788 929.602 27.8977V31.3068C929.489 31.2784 929.228 31.2358 928.821 31.179C928.423 31.1127 928.002 31.0795 927.557 31.0795C926.496 31.0795 925.549 31.3021 924.716 31.7472C923.892 32.1828 923.239 32.7888 922.756 33.5653C922.282 34.3324 922.045 35.2083 922.045 36.1932V50H918.693ZM965.167 30C964.854 29.0436 964.442 28.1866 963.931 27.429C963.429 26.6619 962.828 26.0085 962.127 25.4688C961.436 24.929 960.65 24.517 959.769 24.233C958.888 23.9489 957.923 23.8068 956.871 23.8068C955.148 23.8068 953.581 24.2519 952.17 25.142C950.759 26.0322 949.637 27.3438 948.803 29.0767C947.97 30.8097 947.553 32.9356 947.553 35.4545C947.553 37.9735 947.975 40.0994 948.817 41.8324C949.66 43.5653 950.801 44.8769 952.241 45.767C953.68 46.6572 955.299 47.1023 957.099 47.1023C958.765 47.1023 960.233 46.7472 961.502 46.0369C962.781 45.3172 963.775 44.304 964.485 42.9972C965.205 41.6809 965.565 40.1326 965.565 38.3523L966.644 38.5795H957.894V35.4545H968.974V38.5795C968.974 40.9754 968.462 43.0587 967.44 44.8295C966.426 46.6004 965.025 47.9735 963.235 48.9489C961.455 49.9148 959.409 50.3977 957.099 50.3977C954.523 50.3977 952.26 49.7917 950.309 48.5795C948.368 47.3674 946.853 45.6439 945.763 43.4091C944.684 41.1742 944.144 38.5227 944.144 35.4545C944.144 33.1534 944.452 31.0843 945.067 29.2472C945.692 27.4006 946.573 25.8286 947.71 24.5312C948.846 23.2339 950.191 22.2396 951.744 21.5483C953.297 20.857 955.006 20.5114 956.871 20.5114C958.406 20.5114 959.835 20.7434 961.161 21.2074C962.496 21.6619 963.685 22.3106 964.727 23.1534C965.778 23.9867 966.654 24.9858 967.354 26.1506C968.055 27.3059 968.538 28.589 968.803 30H965.167ZM980.973 50.5114C979.59 50.5114 978.336 50.2509 977.209 49.7301C976.082 49.1998 975.187 48.4375 974.524 47.4432C973.861 46.4394 973.53 45.2273 973.53 43.8068C973.53 42.5568 973.776 41.5436 974.268 40.767C974.761 39.9811 975.419 39.3655 976.243 38.9205C977.067 38.4754 977.976 38.1439 978.97 37.9261C979.974 37.6989 980.982 37.5189 981.996 37.3864C983.321 37.2159 984.396 37.0881 985.22 37.0028C986.054 36.9081 986.66 36.7519 987.038 36.5341C987.427 36.3163 987.621 35.9375 987.621 35.3977V35.2841C987.621 33.8826 987.237 32.7936 986.47 32.017C985.713 31.2405 984.562 30.8523 983.018 30.8523C981.418 30.8523 980.163 31.2027 979.254 31.9034C978.345 32.6042 977.706 33.3523 977.337 34.1477L974.155 33.0114C974.723 31.6856 975.481 30.6534 976.428 29.9148C977.384 29.1667 978.426 28.6458 979.553 28.3523C980.689 28.0492 981.806 27.8977 982.905 27.8977C983.606 27.8977 984.411 27.983 985.32 28.1534C986.238 28.3144 987.124 28.6506 987.976 29.1619C988.838 29.6733 989.553 30.4451 990.121 31.4773C990.689 32.5095 990.973 33.892 990.973 35.625V50H987.621V47.0455H987.45C987.223 47.5189 986.844 48.0256 986.314 48.5653C985.784 49.1051 985.078 49.5644 984.197 49.9432C983.317 50.322 982.242 50.5114 980.973 50.5114ZM981.484 47.5C982.81 47.5 983.928 47.2396 984.837 46.7188C985.755 46.1979 986.446 45.5256 986.911 44.7017C987.384 43.8778 987.621 43.0114 987.621 42.1023V39.0341C987.479 39.2045 987.166 39.3608 986.683 39.5028C986.21 39.6354 985.661 39.7538 985.036 39.858C984.42 39.9527 983.819 40.0379 983.232 40.1136C982.654 40.1799 982.185 40.2367 981.825 40.2841C980.954 40.3977 980.14 40.5824 979.382 40.8381C978.634 41.0843 978.028 41.4583 977.564 41.9602C977.109 42.4527 976.882 43.125 976.882 43.9773C976.882 45.142 977.313 46.0227 978.175 46.6193C979.046 47.2064 980.149 47.5 981.484 47.5ZM1000.44 20.9091V50H997.092V20.9091H1000.44ZM1009.94 20.9091V50H1006.58V20.9091H1009.94ZM1025.22 50.4545C1023.12 50.4545 1021.31 49.9905 1019.78 49.0625C1018.27 48.125 1017.1 46.8182 1016.27 45.142C1015.46 43.4564 1015.05 41.4962 1015.05 39.2614C1015.05 37.0265 1015.46 35.0568 1016.27 33.3523C1017.1 31.6383 1018.24 30.303 1019.71 29.3466C1021.19 28.3807 1022.91 27.8977 1024.88 27.8977C1026.02 27.8977 1027.14 28.0871 1028.25 28.4659C1029.36 28.8447 1030.37 29.4602 1031.27 30.3125C1032.18 31.1553 1032.91 32.2727 1033.45 33.6648C1033.99 35.0568 1034.26 36.7708 1034.26 38.8068V40.2273H1017.44V37.3295H1030.85C1030.85 36.0985 1030.6 35 1030.11 34.0341C1029.63 33.0682 1028.94 32.3059 1028.04 31.7472C1027.15 31.1884 1026.09 30.9091 1024.88 30.9091C1023.55 30.9091 1022.39 31.2405 1021.42 31.9034C1020.45 32.5568 1019.71 33.4091 1019.19 34.4602C1018.67 35.5114 1018.41 36.6383 1018.41 37.8409V39.7727C1018.41 41.4205 1018.69 42.8172 1019.26 43.9631C1019.84 45.0994 1020.64 45.9659 1021.66 46.5625C1022.68 47.1496 1023.87 47.4432 1025.22 47.4432C1026.1 47.4432 1026.9 47.3201 1027.61 47.0739C1028.33 46.8182 1028.95 46.4394 1029.47 45.9375C1029.99 45.4261 1030.39 44.7917 1030.68 44.0341L1033.92 44.9432C1033.58 46.0417 1033 47.0076 1032.2 47.8409C1031.39 48.6648 1030.4 49.3087 1029.22 49.7727C1028.03 50.2273 1026.7 50.4545 1025.22 50.4545ZM1039.36 50V28.1818H1042.6V31.4773H1042.82C1043.22 30.3977 1043.94 29.5218 1044.98 28.8494C1046.02 28.1771 1047.2 27.8409 1048.5 27.8409C1048.75 27.8409 1049.06 27.8456 1049.43 27.8551C1049.8 27.8646 1050.08 27.8788 1050.27 27.8977V31.3068C1050.15 31.2784 1049.89 31.2358 1049.49 31.179C1049.09 31.1127 1048.67 31.0795 1048.22 31.0795C1047.16 31.0795 1046.21 31.3021 1045.38 31.7472C1044.56 32.1828 1043.9 32.7888 1043.42 33.5653C1042.95 34.3324 1042.71 35.2083 1042.71 36.1932V50H1039.36ZM1057.06 58.1818C1056.5 58.1818 1055.99 58.1345 1055.54 58.0398C1055.1 57.9545 1054.79 57.8693 1054.62 57.7841L1055.47 54.8295C1056.29 55.0379 1057.01 55.1136 1057.63 55.0568C1058.26 55 1058.81 54.7206 1059.29 54.2188C1059.79 53.7263 1060.24 52.9261 1060.64 51.8182L1061.27 50.1136L1053.2 28.1818H1056.84L1062.86 45.5682H1063.09L1069.11 28.1818H1072.75L1063.48 53.1818C1063.07 54.3087 1062.55 55.2415 1061.94 55.9801C1061.32 56.7282 1060.6 57.2822 1059.79 57.642C1058.99 58.0019 1058.08 58.1818 1057.06 58.1818Z" fill="black"/>
</svg>
