<svg width="1400" height="800" viewBox="0 0 1400 800" fill="none" xmlns="http://www.w3.org/2000/svg">
<rect width="1400" height="800" fill="white"/>
<circle cx="1256" cy="582" r="50" fill="#D9D9D9"/>
<circle cx="1065" cy="582" r="50" fill="#D9D9D9"/>
<circle cx="889" cy="582" r="50" fill="#D9D9D9"/>
<rect x="956" y="388" width="233" height="47" rx="10" fill="#D9D9D9"/>
<path d="M1049.55 407H1046.73C1046.56 406.189 1046.27 405.477 1045.85 404.864C1045.44 404.25 1044.94 403.735 1044.35 403.318C1043.77 402.894 1043.12 402.576 1042.41 402.364C1041.7 402.152 1040.95 402.045 1040.18 402.045C1038.77 402.045 1037.5 402.402 1036.35 403.114C1035.22 403.826 1034.31 404.875 1033.64 406.261C1032.97 407.648 1032.64 409.348 1032.64 411.364C1032.64 413.379 1032.97 415.08 1033.64 416.466C1034.31 417.852 1035.22 418.902 1036.35 419.614C1037.5 420.326 1038.77 420.682 1040.18 420.682C1040.95 420.682 1041.7 420.576 1042.41 420.364C1043.12 420.152 1043.77 419.837 1044.35 419.42C1044.94 418.996 1045.44 418.477 1045.85 417.864C1046.27 417.242 1046.56 416.53 1046.73 415.727H1049.55C1049.33 416.917 1048.95 417.981 1048.39 418.92C1047.83 419.86 1047.13 420.659 1046.3 421.318C1045.46 421.97 1044.53 422.466 1043.49 422.807C1042.46 423.148 1041.36 423.318 1040.18 423.318C1038.2 423.318 1036.43 422.833 1034.89 421.864C1033.34 420.894 1032.13 419.515 1031.24 417.727C1030.35 415.939 1029.91 413.818 1029.91 411.364C1029.91 408.909 1030.35 406.788 1031.24 405C1032.13 403.212 1033.34 401.833 1034.89 400.864C1036.43 399.894 1038.2 399.409 1040.18 399.409C1041.36 399.409 1042.46 399.58 1043.49 399.92C1044.53 400.261 1045.46 400.761 1046.3 401.42C1047.13 402.072 1047.83 402.867 1048.39 403.807C1048.95 404.739 1049.33 405.803 1049.55 407ZM1073.74 411.364C1073.74 413.818 1073.29 415.939 1072.41 417.727C1071.52 419.515 1070.3 420.894 1068.76 421.864C1067.21 422.833 1065.45 423.318 1063.46 423.318C1061.48 423.318 1059.71 422.833 1058.17 421.864C1056.62 420.894 1055.41 419.515 1054.52 417.727C1053.63 415.939 1053.19 413.818 1053.19 411.364C1053.19 408.909 1053.63 406.788 1054.52 405C1055.41 403.212 1056.62 401.833 1058.17 400.864C1059.71 399.894 1061.48 399.409 1063.46 399.409C1065.45 399.409 1067.21 399.894 1068.76 400.864C1070.3 401.833 1071.52 403.212 1072.41 405C1073.29 406.788 1073.74 408.909 1073.74 411.364ZM1071.01 411.364C1071.01 409.348 1070.67 407.648 1070 406.261C1069.33 404.875 1068.43 403.826 1067.28 403.114C1066.14 402.402 1064.87 402.045 1063.46 402.045C1062.05 402.045 1060.78 402.402 1059.63 403.114C1058.5 403.826 1057.59 404.875 1056.92 406.261C1056.25 407.648 1055.92 409.348 1055.92 411.364C1055.92 413.379 1056.25 415.08 1056.92 416.466C1057.59 417.852 1058.5 418.902 1059.63 419.614C1060.78 420.326 1062.05 420.682 1063.46 420.682C1064.87 420.682 1066.14 420.326 1067.28 419.614C1068.43 418.902 1069.33 417.852 1070 416.466C1070.67 415.08 1071.01 413.379 1071.01 411.364ZM1078.47 423V399.727H1086.34C1088.16 399.727 1089.66 400.057 1090.82 400.716C1091.98 401.367 1092.85 402.25 1093.41 403.364C1093.97 404.477 1094.25 405.72 1094.25 407.091C1094.25 408.462 1093.97 409.708 1093.41 410.83C1092.85 411.951 1092 412.845 1090.84 413.511C1089.68 414.17 1088.19 414.5 1086.38 414.5H1080.75V412H1086.29C1087.54 412 1088.55 411.784 1089.3 411.352C1090.06 410.92 1090.61 410.337 1090.95 409.602C1091.3 408.86 1091.47 408.023 1091.47 407.091C1091.47 406.159 1091.3 405.326 1090.95 404.591C1090.61 403.856 1090.06 403.28 1089.29 402.864C1088.53 402.439 1087.51 402.227 1086.25 402.227H1081.29V423H1078.47ZM1096.79 399.727H1100.01L1106.47 410.591H1106.74L1113.2 399.727H1116.42L1108.01 413.409V423H1105.2V413.409L1096.79 399.727Z" fill="black"/>
<rect x="839" y="221" width="467" height="70" rx="15" fill="#D9D9D9"/>
<path d="M1037.43 67.1818C1037.26 65.7424 1036.57 64.625 1035.36 63.8295C1034.15 63.0341 1032.66 62.6364 1030.9 62.6364C1029.61 62.6364 1028.48 62.8447 1027.52 63.2614C1026.56 63.678 1025.81 64.2509 1025.27 64.9801C1024.74 65.7093 1024.48 66.5379 1024.48 67.4659C1024.48 68.2424 1024.66 68.91 1025.03 69.4688C1025.41 70.018 1025.89 70.4773 1026.48 70.8466C1027.07 71.2064 1027.68 71.5047 1028.33 71.7415C1028.97 71.9687 1029.56 72.1534 1030.1 72.2955L1033.06 73.0909C1033.81 73.2898 1034.66 73.5644 1035.59 73.9148C1036.52 74.2652 1037.42 74.7434 1038.27 75.3494C1039.13 75.946 1039.84 76.7131 1040.4 77.6506C1040.96 78.5881 1041.24 79.7386 1041.24 81.1023C1041.24 82.6742 1040.83 84.0947 1040 85.3636C1039.19 86.6326 1038 87.6411 1036.42 88.3892C1034.86 89.1373 1032.96 89.5114 1030.73 89.5114C1028.64 89.5114 1026.84 89.1752 1025.32 88.5028C1023.8 87.8305 1022.61 86.893 1021.74 85.6903C1020.87 84.4877 1020.39 83.0909 1020.27 81.5H1023.91C1024 82.5985 1024.37 83.5076 1025.02 84.2273C1025.67 84.9375 1026.49 85.4678 1027.49 85.8182C1028.49 86.1591 1029.57 86.3295 1030.73 86.3295C1032.07 86.3295 1033.28 86.1117 1034.35 85.6761C1035.42 85.2311 1036.27 84.6155 1036.89 83.8295C1037.52 83.0341 1037.83 82.1061 1037.83 81.0455C1037.83 80.0795 1037.56 79.2936 1037.02 78.6875C1036.48 78.0814 1035.77 77.589 1034.89 77.2102C1034.01 76.8314 1033.06 76.5 1032.03 76.2159L1028.45 75.1932C1026.18 74.5398 1024.38 73.607 1023.06 72.3949C1021.73 71.1828 1021.07 69.5966 1021.07 67.6364C1021.07 66.0076 1021.51 64.5871 1022.39 63.375C1023.28 62.1534 1024.47 61.2064 1025.97 60.5341C1027.47 59.8523 1029.16 59.5114 1031.01 59.5114C1032.89 59.5114 1034.55 59.8475 1036.01 60.5199C1037.47 61.1828 1038.63 62.0919 1039.48 63.2472C1040.34 64.4025 1040.79 65.714 1040.84 67.1818H1037.43ZM1049.93 75.875V89H1046.58V59.9091H1049.93V70.5909H1050.21C1050.72 69.464 1051.49 68.5691 1052.51 67.9062C1053.55 67.2339 1054.92 66.8977 1056.63 66.8977C1058.12 66.8977 1059.42 67.196 1060.54 67.7926C1061.66 68.3797 1062.52 69.2841 1063.14 70.5057C1063.76 71.7178 1064.08 73.2614 1064.08 75.1364V89H1060.72V75.3636C1060.72 73.6307 1060.27 72.2907 1059.37 71.3438C1058.48 70.3873 1057.25 69.9091 1055.67 69.9091C1054.57 69.9091 1053.58 70.1411 1052.71 70.6051C1051.85 71.0691 1051.17 71.7462 1050.67 72.6364C1050.17 73.5265 1049.93 74.6061 1049.93 75.875ZM1076.63 89.5114C1075.25 89.5114 1073.99 89.2509 1072.87 88.7301C1071.74 88.1998 1070.84 87.4375 1070.18 86.4432C1069.52 85.4394 1069.19 84.2273 1069.19 82.8068C1069.19 81.5568 1069.43 80.5436 1069.92 79.767C1070.42 78.9811 1071.08 78.3655 1071.9 77.9205C1072.72 77.4754 1073.63 77.1439 1074.63 76.9261C1075.63 76.6989 1076.64 76.5189 1077.65 76.3864C1078.98 76.2159 1080.05 76.0881 1080.88 76.0028C1081.71 75.9081 1082.32 75.7519 1082.69 75.5341C1083.08 75.3163 1083.28 74.9375 1083.28 74.3977V74.2841C1083.28 72.8826 1082.89 71.7936 1082.13 71.017C1081.37 70.2405 1080.22 69.8523 1078.67 69.8523C1077.07 69.8523 1075.82 70.2027 1074.91 70.9034C1074 71.6042 1073.36 72.3523 1072.99 73.1477L1069.81 72.0114C1070.38 70.6856 1071.14 69.6534 1072.08 68.9148C1073.04 68.1667 1074.08 67.6458 1075.21 67.3523C1076.35 67.0492 1077.46 66.8977 1078.56 66.8977C1079.26 66.8977 1080.07 66.983 1080.98 67.1534C1081.89 67.3144 1082.78 67.6506 1083.63 68.1619C1084.49 68.6733 1085.21 69.4451 1085.78 70.4773C1086.35 71.5095 1086.63 72.892 1086.63 74.625V89H1083.28V86.0455H1083.11C1082.88 86.5189 1082.5 87.0256 1081.97 87.5653C1081.44 88.1051 1080.73 88.5644 1079.85 88.9432C1078.97 89.322 1077.9 89.5114 1076.63 89.5114ZM1077.14 86.5C1078.47 86.5 1079.58 86.2396 1080.49 85.7188C1081.41 85.1979 1082.1 84.5256 1082.57 83.7017C1083.04 82.8778 1083.28 82.0114 1083.28 81.1023V78.0341C1083.13 78.2045 1082.82 78.3608 1082.34 78.5028C1081.87 78.6354 1081.32 78.7538 1080.69 78.858C1080.08 78.9527 1079.47 79.0379 1078.89 79.1136C1078.31 79.1799 1077.84 79.2367 1077.48 79.2841C1076.61 79.3977 1075.8 79.5824 1075.04 79.8381C1074.29 80.0843 1073.68 80.4583 1073.22 80.9602C1072.77 81.4527 1072.54 82.125 1072.54 82.9773C1072.54 84.142 1072.97 85.0227 1073.83 85.6193C1074.7 86.2064 1075.81 86.5 1077.14 86.5ZM1092.75 89V67.1818H1095.99V70.4773H1096.21C1096.61 69.3977 1097.33 68.5218 1098.37 67.8494C1099.41 67.1771 1100.59 66.8409 1101.9 66.8409C1102.14 66.8409 1102.45 66.8456 1102.82 66.8551C1103.19 66.8646 1103.47 66.8788 1103.66 66.8977V70.3068C1103.54 70.2784 1103.28 70.2358 1102.88 70.179C1102.48 70.1127 1102.06 70.0795 1101.61 70.0795C1100.55 70.0795 1099.6 70.3021 1098.77 70.7472C1097.95 71.1828 1097.29 71.7888 1096.81 72.5653C1096.34 73.3324 1096.1 74.2083 1096.1 75.1932V89H1092.75ZM1116.11 89.4545C1114.01 89.4545 1112.2 88.9905 1110.67 88.0625C1109.16 87.125 1107.99 85.8182 1107.17 84.142C1106.35 82.4564 1105.94 80.4962 1105.94 78.2614C1105.94 76.0265 1106.35 74.0568 1107.17 72.3523C1107.99 70.6383 1109.14 69.303 1110.6 68.3466C1112.08 67.3807 1113.8 66.8977 1115.77 66.8977C1116.91 66.8977 1118.03 67.0871 1119.14 67.4659C1120.25 67.8447 1121.26 68.4602 1122.17 69.3125C1123.07 70.1553 1123.8 71.2727 1124.34 72.6648C1124.88 74.0568 1125.15 75.7708 1125.15 77.8068V79.2273H1108.33V76.3295H1121.74C1121.74 75.0985 1121.49 74 1121 73.0341C1120.52 72.0682 1119.83 71.3059 1118.93 70.7472C1118.04 70.1884 1116.99 69.9091 1115.77 69.9091C1114.44 69.9091 1113.28 70.2405 1112.31 70.9034C1111.34 71.5568 1110.6 72.4091 1110.08 73.4602C1109.56 74.5114 1109.3 75.6383 1109.3 76.8409V78.7727C1109.3 80.4205 1109.58 81.8172 1110.15 82.9631C1110.73 84.0994 1111.53 84.9659 1112.55 85.5625C1113.57 86.1496 1114.76 86.4432 1116.11 86.4432C1117 86.4432 1117.79 86.3201 1118.5 86.0739C1119.22 85.8182 1119.84 85.4394 1120.36 84.9375C1120.88 84.4261 1121.28 83.7917 1121.57 83.0341L1124.81 83.9432C1124.47 85.0417 1123.89 86.0076 1123.09 86.8409C1122.28 87.6648 1121.29 88.3087 1120.11 88.7727C1118.92 89.2273 1117.59 89.4545 1116.11 89.4545Z" fill="black"/>
<rect x="29" y="50" width="700" height="700" rx="10" fill="#D9D9D9"/>
</svg>
